<svg xmlns="http://www.w3.org/2000/svg" style="display: none;">

    <!-- calendar -->
    <symbol id="icon-calendar" viewBox="0 0 24 24" fill="none" stroke="currentColor"
        stroke-width="2">
        <path stroke-linecap="round" stroke-linejoin="round"
            d="M6.75 3v2.25M17.25 3v2.25M3 18.75V7.5a2.25 2.25 0 0 1 2.25-2.25h13.5A2.25 2.25 0 0 1 21 7.5v11.25m-18 0A2.25 2.25 0 0 0 5.25 21h13.5A2.25 2.25 0 0 0 21 18.75m-18 0v-7.5A2.25 2.25 0 0 1 5.25 9h13.5A2.25 2.25 0 0 1 21 11.25v7.5m-9-6h.008v.008H12v-.008ZM12 15h.008v.008H12V15Zm0 2.25h.008v.008H12v-.008ZM9.75 15h.008v.008H9.75V15Zm0 2.25h.008v.008H9.75v-.008ZM7.5 15h.008v.008H7.5V15Zm0 2.25h.008v.008H7.5v-.008Zm6.75-4.5h.008v.008h-.008v-.008Zm0 2.25h.008v.008h-.008V15Zm0 2.25h.008v.008h-.008v-.008Zm2.25-4.5h.008v.008H16.5v-.008Zm0 2.25h.008v.008H16.5V15Z" />
    </symbol>

    <!-- chevron -->
    <symbol id="icon-chevron" fill="none" viewBox="0 0 24 24" stroke-width="2"
        stroke="currentColor">
        <path stroke-linecap="round" stroke-linejoin="round" d="m8.25 4.5 7.5 7.5-7.5 7.5" />
    </symbol>

    <!-- cross -->
    <symbol id="icon-cross" fill="none" viewBox="0 0 24 24" stroke-width="3"
        stroke="currentColor">
        <path stroke-linecap="round" stroke-linejoin="round" d="M6 18 18 6M6 6l12 12" />
    </symbol>

    <!-- club -->
    <symbol id="icon-club" fill="none" viewBox="0 0 24 24" stroke-width="2"
        stroke="currentColor">
        <path stroke-linecap="round" stroke-linejoin="round"
            d="M18 18.72a9.094 9.094 0 0 0 3.741-.479 3 3 0 0 0-4.682-2.72m.94 3.198.001.031c0 .225-.012.447-.037.666A11.944 11.944 0 0 1 12 21c-2.17 0-4.207-.576-5.963-1.584A6.062 6.062 0 0 1 6 18.719m12 0a5.971 5.971 0 0 0-.941-3.197m0 0A5.995 5.995 0 0 0 12 12.75a5.995 5.995 0 0 0-5.058 2.772m0 0a3 3 0 0 0-4.681 2.72 8.986 8.986 0 0 0 3.74.477m.94-3.197a5.971 5.971 0 0 0-.94 3.197M15 6.75a3 3 0 1 1-6 0 3 3 0 0 1 6 0Zm6 3a2.25 2.25 0 1 1-4.5 0 2.25 2.25 0 0 1 4.5 0Zm-13.5 0a2.25 2.25 0 1 1-4.5 0 2.25 2.25 0 0 1 4.5 0Z" />
    </symbol>

    <!-- filter -->
    <symbol id="icon-filter" fill="none" viewBox="0 0 24 24" stroke-width="2"
        stroke="currentColor">
        <path stroke-linecap="round" stroke-linejoin="round"
            d="M12 3c2.755 0 5.455.232 8.083.678.533.09.917.556.917 1.096v1.044a2.25 2.25 0 0 1-.659 1.591l-5.432 5.432a2.25 2.25 0 0 0-.659 1.591v2.927a2.25 2.25 0 0 1-1.244 2.013L9.75 21v-6.568a2.25 2.25 0 0 0-.659-1.591L3.659 7.409A2.25 2.25 0 0 1 3 5.818V4.774c0-.54.384-1.006.917-1.096A48.32 48.32 0 0 1 12 3Z" />
    </symbol>

    <!-- heart -->
    <symbol id="icon-heart" fill="currentColor" viewBox="0 0 24 24" stroke-width="2"
        stroke="currentColor">
        <path stroke-linecap="round" stroke-linejoin="round"
            d="M21 8.25c0-2.485-2.099-4.5-4.688-4.5-1.935 0-3.597 1.126-4.312 2.733-.715-1.607-2.377-2.733-4.313-2.733C5.1 3.75 3 5.765 3 8.25c0 7.22 9 12 9 12s9-4.78 9-12Z" />
    </symbol>

    <!-- home -->
    <symbol id="icon-home" viewBox="0 0 24 24" fill="none" stroke="currentColor" stroke-width="2">
        <path stroke-linecap="round" stroke-linejoin="round"
            d="M2.25 12L11.204 3.045a1.125 1.125 0 0 1 1.591 0L21.75 12M4.5 9.75v10.125a1.125 1.125 0 0 0 1.125 1.125H9.75v-4.875a1.125 1.125 0 0 1 1.125-1.125h2.25a1.125 1.125 0 0 1 1.125 1.125V21h4.125a1.125 1.125 0 0 0 1.125-1.125V9.75M8.25 21h8.25" />
    </symbol>

    <!-- info -->
    <symbol id="icon-info" viewBox="0 0 24 24" fill="none" stroke="currentColor" stroke-width="2">
        <path stroke-linecap="round" stroke-linejoin="round"
            d="m11.25 11.25.041-.02a.75.75 0 0 1 1.063.852l-.708 2.836a.75.75 0 0 0 1.063.853l.041-.021M21 12a9 9 0 1 1-18 0 9 9 0 0 1 18 0Zm-9-3.75h.008v.008H12V8.25Z" />
    </symbol>

    <!-- maps -->
    <symbol id="icon-map" fill="none" viewBox="0 0 24 24" stroke-width="2" stroke="currentColor">
        <path stroke-linecap="round" stroke-linejoin="round"
            d="M9 6.75V15m6-6v8.25m.503 3.498 4.875-2.437c.381-.19.622-.58.622-1.006V4.82c0-.836-.88-1.38-1.628-1.006l-3.869 1.934c-.317.159-.69.159-1.006 0L9.503 3.252a1.125 1.125 0 0 0-1.006 0L3.622 5.689C3.24 5.88 3 6.27 3 6.695V19.18c0 .836.88 1.38 1.628 1.006l3.869-1.934c.317-.159.69-.159 1.006 0l4.994 2.497c.317.158.69.158 1.006 0Z" />
    </symbol>

    <!-- menu -->
    <symbol id="icon-menu" fill="none" viewBox="0 0 24 24" stroke-width="2"
        stroke="currentColor">
        <path stroke-linecap="round" stroke-linejoin="round"
            d="M3.75 6.75h16.5M3.75 12h16.5m-16.5 5.25h16.5" />
    </symbol>

    <!-- rank -->
    <symbol id="icon-rank" fill="none" viewBox="0 0 24 24" stroke-width="2"
        stroke="currentColor">
        <path stroke-linecap="round" stroke-linejoin="round"
            d="M3 13.125C3 12.504 3.504 12 4.125 12h2.25c.621 0 1.125.504 1.125 1.125v6.75C7.5 20.496 6.996 21 6.375 21h-2.25A1.125 1.125 0 0 1 3 19.875v-6.75ZM9.75 8.625c0-.621.504-1.125 1.125-1.125h2.25c.621 0 1.125.504 1.125 1.125v11.25c0 .621-.504 1.125-1.125 1.125h-2.25a1.125 1.125 0 0 1-1.125-1.125V8.625ZM16.5 4.125c0-.621.504-1.125 1.125-1.125h2.25C20.496 3 21 3.504 21 4.125v15.75c0 .621-.504 1.125-1.125 1.125h-2.25a1.125 1.125 0 0 1-1.125-1.125V4.125Z" />
    </symbol>

    <!-- search -->
    <symbol id="icon-search" fill="none" viewBox="0 0 24 24" stroke-width="2"
        stroke="currentColor">
        <path stroke-linecap="round" stroke-linejoin="round"
            d="m21 21-5.197-5.197m0 0A7.5 7.5 0 1 0 5.196 5.196a7.5 7.5 0 0 0 10.607 10.607Z" />
    </symbol>

    <!-- star -->
    <symbol id="icon-star" fill="none" viewBox="0 0 24 24" stroke-width="2" stroke="currentColor">
        <path stroke-linecap="round" stroke-linejoin="round"
            d="M11.48 3.499a.562.562 0 0 1 1.04 0l2.125 5.111a.563.563 0 0 0 .475.345l5.518.442c.499.04.701.663.321.988l-4.204 3.602a.563.563 0 0 0-.182.557l1.285 5.385a.562.562 0 0 1-.84.61l-4.725-2.885a.562.562 0 0 0-.586 0L6.982 20.54a.562.562 0 0 1-.84-.61l1.285-5.386a.562.562 0 0 0-.182-.557l-4.204-3.602a.562.562 0 0 1 .321-.988l5.518-.442a.563.563 0 0 0 .475-.345L11.48 3.5Z" />
    </symbol>

    <!-- trophy -->
    <symbol id='icon-trophy' fill="none" viewBox="0 0 24 24" stroke-width="2"
        stroke="currentColor">
        <path stroke-linecap="round" stroke-linejoin="round"
            d="M16.5 18.75h-9m9 0a3 3 0 0 1 3 3h-15a3 3 0 0 1 3-3m9 0v-3.375c0-.621-.503-1.125-1.125-1.125h-.871M7.5 18.75v-3.375c0-.621.504-1.125 1.125-1.125h.872m5.007 0H9.497m5.007 0a7.454 7.454 0 0 1-.982-3.172M9.497 14.25a7.454 7.454 0 0 0 .981-3.172M5.25 4.236c-.982.143-1.954.317-2.916.52A6.003 6.003 0 0 0 7.73 9.728M5.25 4.236V4.5c0 2.108.966 3.99 2.48 5.228M5.25 4.236V2.721C7.456 2.41 9.71 2.25 12 2.25c2.291 0 4.545.16 6.75.47v1.516M7.73 9.728a6.726 6.726 0 0 0 2.748 1.35m8.272-6.842V4.5c0 2.108-.966 3.99-2.48 5.228m2.48-5.492a46.32 46.32 0 0 1 2.916.52 6.003 6.003 0 0 1-5.395 4.972m0 0a6.726 6.726 0 0 1-2.749 1.35m0 0a6.772 6.772 0 0 1-3.044 0" />
    </symbol>

</svg>